<?xml version="1.0" encoding="UTF-8" standalone="no"?>
<!-- Generator: Adobe Illustrator 22.0.1, SVG Export Plug-In . SVG Version: 6.00 Build 0)  -->

<svg
   xmlns:dc="http://purl.org/dc/elements/1.1/"
   xmlns:cc="http://creativecommons.org/ns#"
   xmlns:rdf="http://www.w3.org/1999/02/22-rdf-syntax-ns#"
   xmlns:svg="http://www.w3.org/2000/svg"
   xmlns="http://www.w3.org/2000/svg"
   xmlns:sodipodi="http://sodipodi.sourceforge.net/DTD/sodipodi-0.dtd"
   xmlns:inkscape="http://www.inkscape.org/namespaces/inkscape"
   version="1.1"
   id="Layer_1"
   x="0px"
   y="0px"
   viewBox="0 0 370.84783 104.7"
   xml:space="preserve"
   sodipodi:docname="imperial.svg"
   width="370.84784"
   height="104.7"
   inkscape:version="0.92.4 (5da689c313, 2019-01-14)"><metadata
   id="metadata51"><rdf:RDF><cc:Work
       rdf:about=""><dc:format>image/svg+xml</dc:format><dc:type
         rdf:resource="http://purl.org/dc/dcmitype/StillImage" /><dc:title></dc:title></cc:Work></rdf:RDF></metadata><defs
   id="defs49" /><sodipodi:namedview
   pagecolor="#ffffff"
   bordercolor="#666666"
   borderopacity="1"
   objecttolerance="10"
   gridtolerance="10"
   guidetolerance="10"
   inkscape:pageopacity="0"
   inkscape:pageshadow="2"
   inkscape:window-width="1521"
   inkscape:window-height="699"
   id="namedview47"
   showgrid="false"
   fit-margin-top="5"
   fit-margin-left="5"
   fit-margin-right="5"
   fit-margin-bottom="5"
   inkscape:zoom="0.67991379"
   inkscape:cx="-316.08416"
   inkscape:cy="52.750011"
   inkscape:window-x="0"
   inkscape:window-y="0"
   inkscape:window-maximized="0"
   inkscape:current-layer="Layer_1" />
<style
   type="text/css"
   id="style2">
	.st0{fill:#003C70;}
</style>
<path
   class="st0"
   d="M 5,44.8 V 6.9 h 7.4 v 37.9 z"
   id="path4"
   inkscape:connector-curvature="0"
   style="fill:#003c70" />
<path
   class="st0"
   d="m 23.3,20.9 h 0.1 c 1.8,-2.4 5.2,-3.8 8.3,-3.8 3.3,0 6.2,1.4 7.8,3.8 2.2,-2.2 5.6,-3.8 8.8,-3.8 6,-0.1 9.1,3.7 9.2,9.9 v 17.8 h -7 V 28.3 c 0,-3.1 -1.1,-6.4 -4.5,-6.4 -3.4,0 -5.5,2.1 -5.5,6.8 v 16.2 h -7 V 28.3 c 0,-3.8 -1.6,-6.4 -4.6,-6.4 -3.3,0 -5.4,2.3 -5.4,6.9 v 16 h -7 V 17.7 h 7 v 3.2 z"
   id="path6"
   inkscape:connector-curvature="0"
   style="fill:#003c70" />
<path
   class="st0"
   d="m 75.1,21.4 c 4,0 6,4.7 6,9.3 0,4.8 -1.6,10.4 -6.3,10.4 -3.8,0 -6.5,-3.8 -6.5,-9.5 0.1,-6.3 2.4,-10.2 6.8,-10.2 z m -6.7,-3.7 h -7 v 40.7 h 7 v -17 c 2,2.4 4.7,4 7.9,4 7.5,0 12.3,-7.6 12.3,-14.8 0,-6 -3.4,-13.6 -11.7,-13.6 -3.2,0 -6.6,1.6 -8.4,4.4 h -0.1 z"
   id="path8"
   inkscape:connector-curvature="0"
   style="fill:#003c70" />
<path
   class="st0"
   d="m 98.6,28 c -0.1,-3.6 1.7,-6.9 5.8,-6.9 3.5,0 4.9,2.8 4.6,6.9 z m 17,3.9 C 116.1,23.8 112.7,17.1 104.5,17.1 97,17.1 91,22.4 91,30.8 c 0,8.9 6,14.7 13.9,14.7 3,0 6.8,-0.9 10.3,-3 l -2,-3.8 c -1.7,1.2 -4.5,2.2 -7.1,2.2 -4.4,0 -7.9,-3.8 -7.7,-8.9 h 17.2 z"
   id="path10"
   inkscape:connector-curvature="0"
   style="fill:#003c70" />
<path
   class="st0"
   d="m 126,22.5 h 0.1 l 1.4,-2.1 c 0.8,-1.1 2.4,-3.3 4.5,-3.3 1.6,0 3.3,0.9 4.8,2.4 l -2.6,5 c -1.2,-0.6 -1.9,-0.9 -3.3,-0.9 -2.4,0 -4.8,2 -4.8,7.9 v 13.4 h -7 V 17.7 h 7 v 4.8 z"
   id="path12"
   inkscape:connector-curvature="0"
   style="fill:#003c70" />
<path
   class="st0"
   d="m 146,17.7 v 27.1 h -7 V 17.7 Z m -7.7,-8.1 c 0,-2.1 1.7,-4.2 4.1,-4.2 2.4,0 4.3,2.1 4.3,4.2 0,2.3 -1.6,4.5 -4.2,4.5 -2.5,0 -4.2,-2.2 -4.2,-4.5 z"
   id="path14"
   inkscape:connector-curvature="0"
   style="fill:#003c70" />
<path
   class="st0"
   d="m 165.1,29.1 c 0.5,8 -3.1,11.5 -5.9,11.5 -1.7,0 -3.2,-1.6 -3.2,-4 0,-3.1 1.7,-5.1 5.2,-6.2 z M 165,40.8 c 0,1.5 0.2,3 0.7,4 h 7.4 C 172.3,42.9 172,40.4 172,38.2 V 27.1 C 172,18.6 166,17 161.2,17 c -3.6,0 -6.9,0.9 -10.1,3.7 l 2.3,3.4 c 1.8,-1.6 4,-2.8 7,-2.8 2.3,0 4.4,1.6 4.8,4.1 l -6.2,1.9 c -6.1,1.8 -9.8,4.7 -9.8,9.9 0,5 3.4,8.2 7.5,8.2 2.4,0 4.8,-1.7 6.8,-3.3 z"
   id="path16"
   inkscape:connector-curvature="0"
   style="fill:#003c70" />
<path
   class="st0"
   d="M 176.4,44.8 V 5 h 7 v 39.8 z"
   id="path18"
   inkscape:connector-curvature="0"
   style="fill:#003c70" />
<path
   class="st0"
   d="m 229.7,13.7 c -1.8,-1 -4.8,-2.1 -7.7,-2.1 -7.6,0 -13.1,5.5 -13.1,14.1 0,9 6.1,14.3 13.3,14.3 2.9,0 5.5,-0.8 7.4,-1.9 l 2.1,4.7 c -2.3,1.4 -6.2,2.6 -9.8,2.6 -12.8,0 -20.9,-8.7 -20.9,-19.8 0,-10.4 8,-19.4 21,-19.4 3.9,0 7.4,1.4 10,2.9 z"
   id="path20"
   inkscape:connector-curvature="0"
   style="fill:#003c70" />
<path
   class="st0"
   d="m 245.7,41.4 c -5,0 -6.4,-5.7 -6.4,-10.5 0,-4.5 1.6,-9.9 6.4,-9.9 4.9,0 6.4,5.4 6.4,9.9 0,4.8 -1.3,10.5 -6.4,10.5 z m 0,4.1 c 8.3,0 13.9,-6.1 13.9,-14.5 0,-8.8 -6.7,-13.9 -13.9,-13.9 -7.1,0 -13.8,5.1 -13.8,13.9 0,8.3 5.5,14.5 13.8,14.5 z"
   id="path22"
   inkscape:connector-curvature="0"
   style="fill:#003c70" />
<path
   class="st0"
   d="M 262.6,44.8 V 5 h 7 v 39.8 z"
   id="path24"
   inkscape:connector-curvature="0"
   style="fill:#003c70" />
<path
   class="st0"
   d="M 274,44.8 V 5 h 7 v 39.8 z"
   id="path26"
   inkscape:connector-curvature="0"
   style="fill:#003c70" />
<path
   class="st0"
   d="m 291.5,28 c -0.1,-3.6 1.7,-6.9 5.7,-6.9 3.5,0 4.9,2.8 4.6,6.9 z m 17,3.9 c 0.5,-8.1 -2.9,-14.8 -11.1,-14.8 -7.5,0 -13.5,5.3 -13.5,13.7 0,8.9 6,14.7 13.9,14.7 3,0 6.8,-0.9 10.3,-3 l -2,-3.8 c -1.7,1.2 -4.5,2.2 -7.1,2.2 -4.4,0 -7.9,-3.8 -7.7,-8.9 h 17.2 z"
   id="path28"
   inkscape:connector-curvature="0"
   style="fill:#003c70" />
<path
   class="st0"
   d="m 348.8,28 c -0.1,-3.6 1.7,-6.9 5.8,-6.9 3.5,0 4.9,2.8 4.6,6.9 z m 17,3.9 c 0.5,-8.1 -2.9,-14.8 -11.1,-14.8 -7.5,0 -13.5,5.3 -13.5,13.7 0,8.9 6,14.7 13.9,14.7 3,0 6.8,-0.9 10.3,-3 l -2,-3.8 c -1.7,1.2 -4.5,2.2 -7.1,2.2 -4.4,0 -7.9,-3.8 -7.7,-8.9 h 17.2 z"
   id="path30"
   inkscape:connector-curvature="0"
   style="fill:#003c70" />
<path
   class="st0"
   d="m 324.9,21.4 c 4.2,0 6.4,4.4 6.4,9.1 0,5.4 -2,10.6 -6.7,10.6 -4.1,0 -6.1,-5.1 -6.1,-10.4 0.1,-5.2 1.9,-9.3 6.4,-9.3 z m 13.4,-3.7 h -7 V 21 h -0.1 c -1.5,-2.4 -4.6,-4 -7.9,-4 -7.2,0 -12.2,6.8 -12.2,13.9 0,8.7 4.6,14.5 11.6,14.5 4,0 6.8,-2.3 8.5,-4.6 h 0.1 v 3.6 c 0,6.3 -3.6,9.2 -8.2,9.2 -3.6,0 -6.6,-0.7 -9.2,-2.3 l -1.4,4.4 c 3.1,1.6 7.1,2.6 11.1,2.6 7.9,0 14.7,-4 14.7,-16 z"
   id="path32"
   inkscape:connector-curvature="0"
   style="fill:#003c70" />
<path
   class="st0"
   d="m 5,61.1 h 7.5 V 93.9 H 28.3 V 99 H 5 Z"
   id="path34"
   inkscape:connector-curvature="0"
   style="fill:#003c70" />
<path
   class="st0"
   d="m 69.4,75.1 c 2.5,-2.6 6,-3.8 9.5,-3.8 6.5,0 9.6,3.5 9.6,10.3 V 99.1 H 81.4 V 82.5 c 0,-3.8 -1.7,-6.3 -5.6,-6.3 -3.6,0 -6.4,2.3 -6.4,6.8 V 99.2 H 62.3 V 71.9 h 7 v 3.2 z"
   id="path36"
   inkscape:connector-curvature="0"
   style="fill:#003c70" />
<path
   class="st0"
   d="m 106.8,75.6 c 4.4,0 6.7,4.4 6.7,9.1 0,5.4 -2.1,10.6 -7.1,10.6 -4.3,0 -6.4,-5.1 -6.4,-10.4 0,-5.3 2,-9.3 6.8,-9.3 z m 6.7,23.4 h 7.1 V 59.2 h -7.1 v 15.9 h -0.1 c -1.7,-2.4 -4.9,-3.8 -8.5,-3.8 -7.4,0 -12.7,6.8 -12.7,13.9 0,8.7 4.8,14.5 12.1,14.5 4.3,0 7.2,-2.3 9,-4.6 h 0.1 V 99 Z"
   id="path38"
   inkscape:connector-curvature="0"
   style="fill:#003c70" />
<path
   class="st0"
   d="m 138.9,95.6 c -5.3,0 -6.7,-5.7 -6.7,-10.5 0,-4.5 1.7,-9.9 6.7,-9.9 5.2,0 6.8,5.4 6.8,9.9 -0.1,4.8 -1.5,10.5 -6.8,10.5 z m 0,4.1 c 8.7,0 14.6,-6.1 14.6,-14.5 0,-8.8 -7.1,-13.9 -14.6,-13.9 -7.4,0 -14.5,5.1 -14.5,13.9 -0.1,8.3 5.8,14.5 14.5,14.5 z"
   id="path40"
   inkscape:connector-curvature="0"
   style="fill:#003c70" />
<path
   class="st0"
   d="m 164.3,75.1 c 2.5,-2.6 6,-3.8 9.5,-3.8 6.5,0 9.6,3.5 9.6,10.3 v 17.5 h -7.1 V 82.5 c 0,-3.8 -1.7,-6.3 -5.6,-6.3 -3.6,0 -6.4,2.3 -6.4,6.8 v 16.2 h -7.1 V 71.9 h 7 v 3.2 z"
   id="path42"
   inkscape:connector-curvature="0"
   style="fill:#003c70" />
<path
   class="st0"
   d="m 43.8,95.6 c -5.3,0 -6.7,-5.7 -6.7,-10.5 0,-4.5 1.7,-9.9 6.7,-9.9 5.2,0 6.8,5.4 6.8,9.9 0,4.8 -1.4,10.5 -6.8,10.5 z m 0,4.1 c 8.7,0 14.6,-6.1 14.6,-14.5 0,-8.8 -7.1,-13.9 -14.6,-13.9 -7.4,0 -14.5,5.1 -14.5,13.9 0,8.3 5.9,14.5 14.5,14.5 z"
   id="path44"
   inkscape:connector-curvature="0"
   style="fill:#003c70" />
</svg>